<svg width="71" height="70" viewBox="0 0 71 70" fill="none" xmlns="http://www.w3.org/2000/svg">
<path d="M4.97995 34.3474L68.6133 5.61406L4.97995 34.3474ZM68.6133 5.61406L58.1633 1.66406L68.6133 5.61406ZM68.6133 5.61406L64.7299 16.0974L68.6133 5.61406ZM63.3966 68.3307H51.2466V34.2141C51.2466 33.5641 51.4966 32.9474 51.9633 32.4974C52.4299 32.0474 53.0299 31.7807 53.6799 31.7807H60.9799C61.6299 31.7807 62.2466 32.0474 62.6966 32.4974C63.1466 32.9474 63.4133 33.5807 63.4133 34.2141V68.3141L63.3966 68.3307ZM39.0799 68.3307H26.9299V41.5141C26.9299 40.8641 27.1799 40.2474 27.6466 39.7974C28.1133 39.3474 28.7133 39.0807 29.3633 39.0807H36.6633C37.3133 39.0807 37.9299 39.3307 38.3799 39.7974C38.8299 40.2641 39.0966 40.8807 39.0966 41.5141V68.3141L39.0799 68.3307ZM14.7633 68.3307H2.61328V48.8474C2.61328 48.1974 2.86328 47.5807 3.32995 47.1307C3.77995 46.6807 4.39661 46.4141 5.04661 46.4141H12.3466C12.9966 46.4141 13.6133 46.6641 14.0633 47.1307C14.5133 47.5974 14.7799 48.2141 14.7799 48.8474V68.3307H14.7633Z" fill="#5112AD"/>
<path d="M4.97995 34.3474L68.6133 5.61406M68.6133 5.61406L58.1633 1.66406M68.6133 5.61406L64.7299 16.0974M63.3966 68.3307H51.2466V34.2141C51.2466 33.5641 51.4966 32.9474 51.9633 32.4974C52.4299 32.0474 53.0299 31.7807 53.6799 31.7807H60.9799C61.6299 31.7807 62.2466 32.0474 62.6966 32.4974C63.1466 32.9474 63.4133 33.5807 63.4133 34.2141V68.3141L63.3966 68.3307ZM39.0799 68.3307H26.9299V41.5141C26.9299 40.8641 27.1799 40.2474 27.6466 39.7974C28.1133 39.3474 28.7133 39.0807 29.3633 39.0807H36.6633C37.3133 39.0807 37.9299 39.3307 38.3799 39.7974C38.8299 40.2641 39.0966 40.8807 39.0966 41.5141V68.3141L39.0799 68.3307ZM14.7633 68.3307H2.61328V48.8474C2.61328 48.1974 2.86328 47.5807 3.32995 47.1307C3.77995 46.6807 4.39661 46.4141 5.04661 46.4141H12.3466C12.9966 46.4141 13.6133 46.6641 14.0633 47.1307C14.5133 47.5974 14.7799 48.2141 14.7799 48.8474V68.3307H14.7633Z" stroke="#5112AD" stroke-width="3.33333" stroke-linecap="round" stroke-linejoin="round"/>
</svg>
