<svg width="63" height="65" viewBox="0 0 63 65" fill="none" xmlns="http://www.w3.org/2000/svg">
<path d="M60.5842 22.8594H1.94922V33.2394H60.5842V22.8594Z" fill="#5112AD" stroke="white" stroke-width="3.33333" stroke-linecap="round" stroke-linejoin="round"/>
<path d="M57.0948 33.2422H5.46484V63.1522H57.0948V33.2422Z" fill="#5112AD" stroke="white" stroke-width="3.33333" stroke-linecap="round" stroke-linejoin="round"/>
<path d="M30.2644 21.388C32.5349 19.3536 30.9248 13.8531 26.6681 9.10224C22.4114 4.35138 17.12 2.14924 14.8495 4.18362C12.5789 6.218 14.189 11.7185 18.4457 16.4694C22.7025 21.2202 27.9938 23.4224 30.2644 21.388Z" fill="#5112AD" stroke="white" stroke-width="3.33333" stroke-linecap="round" stroke-linejoin="round"/>
<path d="M44.3092 17.4914C49.06 13.2347 51.2622 7.94335 49.2278 5.67281C47.1934 3.40228 41.6929 5.01239 36.942 9.2691C32.1912 13.5258 29.989 18.8172 32.0234 21.0877C34.0578 23.3583 39.5583 21.7482 44.3092 17.4914Z" fill="#5112AD" stroke="white" stroke-width="3.33333" stroke-linecap="round" stroke-linejoin="round"/>
<path d="M31.2578 17.8984V63.1384" stroke="white" stroke-width="3.33333" stroke-linecap="round" stroke-linejoin="round"/>
</svg>
