<svg width="31" height="31" viewBox="0 0 31 31" fill="none" xmlns="http://www.w3.org/2000/svg">
<rect x="0.953125" y="0.734375" width="29.9986" height="29.9986" rx="14.9993" fill="white" fill-opacity="0.2"/>
<path fill-rule="evenodd" clip-rule="evenodd" d="M8.01076 9.42644C8.01076 10.172 7.40637 10.7764 6.66082 10.7764C5.91527 10.7764 5.31088 10.172 5.31088 9.42644C5.31088 8.68089 5.91527 8.0765 6.66082 8.0765C7.40637 8.0765 8.01076 8.68089 8.01076 9.42644ZM7.46713 12.0039C8.56439 11.661 9.3607 10.6367 9.3607 9.42644C9.3607 7.93534 8.15192 6.72656 6.66082 6.72656C5.16972 6.72656 3.96094 7.93534 3.96094 9.42644C3.96094 10.7313 4.88665 11.82 6.11719 12.0716V20.8204C4.88665 21.0719 3.96094 22.1606 3.96094 23.4655C3.96094 24.9566 5.16972 26.1654 6.66082 26.1654C8.15192 26.1654 9.3607 24.9566 9.3607 23.4655C9.3607 22.2552 8.56439 21.231 7.46713 20.8881V16.8897H15.4922V20.8376C14.3008 21.1184 13.4141 22.1884 13.4141 23.4655C13.4141 24.9566 14.6228 26.1654 16.1139 26.1654C17.605 26.1654 18.8138 24.9566 18.8138 23.4655C18.8138 22.2267 17.9795 21.1828 16.8421 20.865V16.8897H23.3251C24.6919 16.8897 25.8 15.7817 25.8 14.4149V12.0384C26.9588 11.7348 27.8138 10.6805 27.8138 9.42644C27.8138 7.93534 26.605 6.72656 25.1139 6.72656C23.6228 6.72656 22.4141 7.93534 22.4141 9.42644C22.4141 10.6885 23.2799 11.7482 24.45 12.0441V14.4149C24.45 15.0361 23.9464 15.5398 23.3251 15.5398H16.8421V12.027C17.9795 11.7092 18.8138 10.6652 18.8138 9.42644C18.8138 7.93534 17.605 6.72656 16.1139 6.72656C14.6228 6.72656 13.4141 7.93534 13.4141 9.42644C13.4141 10.7036 14.3008 11.7736 15.4922 12.0544V15.5398H7.46713V12.0039ZM8.01076 23.4655C8.01076 24.2111 7.40637 24.8154 6.66082 24.8154C5.91527 24.8154 5.31088 24.2111 5.31088 23.4655C5.31088 22.72 5.91527 22.1156 6.66082 22.1156C7.40637 22.1156 8.01076 22.72 8.01076 23.4655ZM16.1139 10.7764C16.8595 10.7764 17.4639 10.172 17.4639 9.42644C17.4639 8.68089 16.8595 8.0765 16.1139 8.0765C15.3684 8.0765 14.764 8.68089 14.764 9.42644C14.764 10.172 15.3684 10.7764 16.1139 10.7764ZM17.4639 23.4655C17.4639 24.2111 16.8595 24.8154 16.1139 24.8154C15.3684 24.8154 14.764 24.2111 14.764 23.4655C14.764 22.72 15.3684 22.1156 16.1139 22.1156C16.8595 22.1156 17.4639 22.72 17.4639 23.4655ZM25.1139 10.7764C25.8595 10.7764 26.4639 10.172 26.4639 9.42644C26.4639 8.68089 25.8595 8.0765 25.1139 8.0765C24.3684 8.0765 23.764 8.68089 23.764 9.42644C23.764 10.172 24.3684 10.7764 25.1139 10.7764Z" fill="black"/>
</svg>
