<svg width="45" height="45" viewBox="0 0 45 45" fill="none" xmlns="http://www.w3.org/2000/svg">
<g clip-path="url(#clip0_1011_3168)">
<circle cx="22.5" cy="22.582" r="22.5" fill="#5F00FB"/>
<g clip-path="url(#clip1_1011_3168)">
<g clip-path="url(#clip2_1011_3168)">
<path d="M10 49.5L36.5 49.5C38.6008 49.5044 39.4718 43.8903 39.4752 42.2606C39.4859 37.195 33.1588 30.1919 22.9687 30.1703C12.7982 30.1489 6.44164 37.1252 6.43094 42.1908C6.4275 43.8205 7.89915 49.4956 10 49.5ZM22.9957 26.656C27.1974 26.6648 30.8574 22.9027 30.8677 17.9942C30.878 13.1446 27.2336 9.5438 23.0319 9.53492C18.8302 9.52605 15.1705 13.1899 15.1604 18.0003C15.1501 22.8695 18.7744 26.647 22.9957 26.656Z" fill="#FFE804"/>
</g>
</g>
</g>
<defs>
<clipPath id="clip0_1011_3168">
<rect width="45" height="45" rx="22.5" fill="white"/>
</clipPath>
<clipPath id="clip1_1011_3168">
<rect width="44.8962" height="47.0361" fill="white" transform="translate(0.5 0.5) rotate(0.121035)"/>
</clipPath>
<clipPath id="clip2_1011_3168">
<rect width="33.0443" height="39.9925" fill="white" transform="translate(6.5 9.5) rotate(0.121035)"/>
</clipPath>
</defs>
</svg>
