<svg width="76" height="80" viewBox="0 0 76 80" fill="none" xmlns="http://www.w3.org/2000/svg">
<path d="M73.9384 27.8281H2.27344V40.5148H73.9384V27.8281Z" fill="white" stroke="#5112AD" stroke-width="4" stroke-linecap="round" stroke-linejoin="round"/>
<path d="M69.6736 40.5234H6.57031V77.0801H69.6736V40.5234Z" fill="white" stroke="#5112AD" stroke-width="4" stroke-linecap="round" stroke-linejoin="round"/>
<path d="M36.8809 26.0332C39.656 23.5468 37.688 16.8239 32.4854 11.0173C27.2827 5.21072 20.8155 2.51921 18.0404 5.00568C15.2653 7.49214 17.2332 14.215 22.4359 20.0216C27.6385 25.8282 34.1058 28.5197 36.8809 26.0332Z" fill="white" stroke="#5112AD" stroke-width="4" stroke-linecap="round" stroke-linejoin="round"/>
<path d="M54.0454 21.2777C59.852 16.0751 62.5435 9.60784 60.057 6.83274C57.5706 4.05764 50.8477 6.02555 45.0411 11.2282C39.2345 16.4309 36.543 22.8981 39.0295 25.6732C41.5159 28.4483 48.2388 26.4804 54.0454 21.2777Z" fill="white" stroke="#5112AD" stroke-width="4" stroke-linecap="round" stroke-linejoin="round"/>
<path d="M38.0938 21.7734V77.0668" stroke="#5112AD" stroke-width="4" stroke-linecap="round" stroke-linejoin="round"/>
</svg>
