<svg width="75" height="94" viewBox="0 0 75 94" fill="none" xmlns="http://www.w3.org/2000/svg">
<path d="M66.6834 42.88C65.5034 41.34 64.0834 40.02 62.7434 38.7C59.3234 35.64 55.4434 33.44 52.1634 30.22C44.5434 22.76 42.8634 10.46 47.7234 1C42.8634 2.18 38.6234 4.82 35.0034 7.74C21.7634 18.36 16.5634 37.12 22.8034 53.2C23.0034 53.72 23.2034 54.22 23.2034 54.88C23.2034 56 22.4434 57.02 21.4234 57.44C20.2434 57.96 19.0234 57.64 18.0434 56.82C17.7434 56.58 17.5034 56.28 17.3234 55.96C11.5434 48.66 10.6234 38.18 14.5234 29.8C5.98339 36.74 1.34339 48.5 2.00339 59.58C2.30339 62.14 2.62339 64.68 3.48339 67.24C4.20339 70.3 5.58339 73.36 7.10339 76.08C12.6234 84.92 22.1634 91.26 32.4434 92.52C43.3834 93.9 55.0634 91.9 63.4434 84.34C72.7834 75.86 76.0634 62.28 71.2634 50.62L70.6034 49.3C69.5234 46.96 66.6634 42.86 66.6634 42.86L66.6834 42.88ZM50.5434 75.06C49.1034 76.28 46.7634 77.62 44.9234 78.12C39.2034 80.16 33.4834 77.3 30.1034 73.94C36.1834 72.52 39.8034 68.02 40.8834 63.46C41.7434 59.38 40.1234 56 39.4434 52.06C38.8234 48.28 38.9234 45.06 40.3034 41.54C41.2834 43.48 42.3034 45.42 43.5234 46.96C47.4634 52.06 53.6434 54.32 54.9634 61.26C55.1634 61.98 55.2634 62.7 55.2634 63.46C55.4234 67.64 53.5834 72.24 50.5034 75.06H50.5434Z" fill="white" stroke="white" stroke-width="2" stroke-linecap="round" stroke-linejoin="round"/>
</svg>
