<svg width="96" height="65" viewBox="0 0 96 65" fill="none" xmlns="http://www.w3.org/2000/svg">
<path d="M94.4871 44.9717H85.8705C85.1371 44.9717 84.6055 44.4217 84.6055 43.7067V17.765C84.6055 17.0317 85.1555 16.5 85.8705 16.5H94.4871C95.2205 16.5 95.7521 17.05 95.7521 17.765V43.6883C95.7521 44.4217 95.2021 44.9533 94.4871 44.9533V44.9717Z" fill="white"/>
<path d="M10.1551 45.0393H1.53844C0.805104 45.0393 0.273438 44.4893 0.273438 43.7743V17.8509C0.273438 17.1176 0.823437 16.5859 1.53844 16.5859H10.1551C10.8884 16.5859 11.4201 17.1359 11.4201 17.8509V43.7743C11.4201 44.5076 10.7784 45.0393 10.1551 45.0393Z" fill="white"/>
<path d="M76.904 17.5772C75.364 16.6789 55.509 3.07557 50.4307 1.90224C43.8857 0.637236 27.5874 17.8522 27.129 21.2989C26.3957 26.9822 32.7574 25.3872 33.564 25.2039C39.6507 23.7922 45.3524 17.4122 47.7907 17.3206C48.524 17.3206 55.3624 27.9172 69.589 44.6922L79.5257 43.0606C80.3507 42.9322 80.9374 42.2172 80.9374 41.3922V19.2639C80.9374 18.3289 80.1857 17.5772 79.2507 17.5772H76.8857H76.904Z" fill="white"/>
<path d="M72.2176 51.0403C72.0893 50.142 69.9076 45.412 69.6326 44.697L47.8343 17.3253L41.4543 5.73867C40.2626 5.68367 38.4843 6.16034 36.4493 6.967C36.4493 6.967 36.4309 6.967 36.4126 6.967C36.3759 6.967 36.3209 7.00367 36.2659 7.022C29.6109 9.64367 19.6009 15.492 16.5209 17.3437C15.9343 17.692 15.5859 18.3337 15.5859 19.012V42.4603C15.5859 43.3403 16.1726 44.092 17.0159 44.3303C18.0243 44.6053 19.4726 45.302 21.0309 46.952C27.0993 53.5703 34.8176 62.627 38.1726 63.727C39.0709 64.002 39.9876 64.0937 39.9876 64.0937C41.5276 64.0937 42.6093 63.5437 42.8843 63.452C44.2409 62.7187 45.0659 61.7287 45.3409 61.1787C45.3409 61.1787 51.0609 67.9803 56.0293 59.7303C58.2109 60.9953 60.7409 60.9953 62.4643 59.547C64.0959 58.282 64.4626 56.3753 64.5543 55.8253C64.7376 55.917 65.1043 56.1003 65.4526 56.192C66.2776 56.467 68.7159 57.2737 70.5309 56.0087C71.8876 55.0187 72.5293 53.0203 72.2543 51.022L72.2176 51.0403Z" fill="white"/>
<path d="M56.2188 44.0859L64.4871 55.8376" stroke="#5112AD" stroke-width="2" stroke-linecap="round" stroke-linejoin="round"/>
<path d="M47.5547 47.8281L55.933 59.7448" stroke="#5112AD" stroke-width="2" stroke-linecap="round" stroke-linejoin="round"/>
<path d="M40.3359 54.1172L45.3409 61.2305" stroke="#5112AD" stroke-width="2" stroke-linecap="round" stroke-linejoin="round"/>
<path d="M44.2734 2.75C37.5084 7.73667 28.1255 19.0107 27.8322 21.284C27.0988 26.9673 33.4605 25.3723 34.2672 25.189C40.3538 23.7773 46.0555 17.3973 48.4938 17.3057L71.7734 45.8333" stroke="#5112AD" stroke-width="4" stroke-linecap="round" stroke-linejoin="round"/>
</svg>
