<svg width="80" height="53" viewBox="0 0 80 53" fill="none" xmlns="http://www.w3.org/2000/svg">
<path d="M78.0303 36.795H70.9803C70.3803 36.795 69.9453 36.345 69.9453 35.76V14.535C69.9453 13.935 70.3953 13.5 70.9803 13.5H78.0303C78.6303 13.5 79.0653 13.95 79.0653 14.535V35.745C79.0653 36.345 78.6153 36.78 78.0303 36.78V36.795Z" fill="#5112AD"/>
<path d="M9.03031 36.8503H1.98031C1.38031 36.8503 0.945312 36.4003 0.945312 35.8153V14.6053C0.945312 14.0053 1.39531 13.5703 1.98031 13.5703H9.03031C9.63031 13.5703 10.0653 14.0203 10.0653 14.6053V35.8153C10.0653 36.4153 9.54031 36.8503 9.03031 36.8503Z" fill="#5112AD"/>
<path d="M63.6441 14.3792C62.3841 13.6442 46.1391 2.51424 41.9841 1.55424C36.6291 0.519245 23.2941 14.6042 22.9191 17.4242C22.3191 22.0742 27.5241 20.7692 28.1841 20.6192C33.1641 19.4642 37.8291 14.2442 39.8241 14.1692C40.4241 14.1692 46.0191 22.8392 57.6591 36.5642L65.7891 35.2292C66.4641 35.1242 66.9441 34.5392 66.9441 33.8642V15.7592C66.9441 14.9942 66.3291 14.3792 65.5641 14.3792H63.6291H63.6441Z" fill="#5112AD"/>
<path d="M59.8077 41.756C59.7027 41.021 57.9177 37.151 57.6927 36.566L39.8577 14.171L34.6377 4.69101C33.6627 4.64601 32.2077 5.03601 30.5427 5.69601C30.5427 5.69601 30.5277 5.69601 30.5127 5.69601C30.4827 5.69601 30.4377 5.72601 30.3927 5.74101C24.9477 7.88601 16.7577 12.671 14.2377 14.186C13.7577 14.471 13.4727 14.996 13.4727 15.551V34.736C13.4727 35.456 13.9527 36.071 14.6427 36.266C15.4677 36.491 16.6527 37.061 17.9277 38.411C22.8927 43.826 29.2077 51.236 31.9527 52.136C32.6877 52.361 33.4377 52.436 33.4377 52.436C34.6977 52.436 35.5827 51.986 35.8077 51.911C36.9177 51.311 37.5927 50.501 37.8177 50.051C37.8177 50.051 42.4977 55.616 46.5627 48.866C48.3477 49.901 50.4177 49.901 51.8277 48.716C53.1627 47.681 53.4627 46.121 53.5377 45.671C53.6877 45.746 53.9877 45.896 54.2727 45.971C54.9477 46.196 56.9427 46.856 58.4277 45.821C59.5377 45.011 60.0627 43.376 59.8377 41.741L59.8077 41.756Z" fill="#5112AD"/>
<path d="M46.7188 36.0703L53.4837 45.6853" stroke="white" stroke-width="1.66667" stroke-linecap="round" stroke-linejoin="round"/>
<path d="M39.6289 39.1328L46.4839 48.8828" stroke="white" stroke-width="1.66667" stroke-linecap="round" stroke-linejoin="round"/>
<path d="M33.7227 44.2734L37.8177 50.0934" stroke="white" stroke-width="1.66667" stroke-linecap="round" stroke-linejoin="round"/>
<path d="M36.9453 2.25C31.4103 6.33 23.7334 15.5542 23.4934 17.4142C22.8934 22.0642 28.0984 20.7592 28.7584 20.6092C33.7384 19.4542 38.4034 14.2342 40.3984 14.1592L59.4453 37.5" stroke="white" stroke-width="3.33333" stroke-linecap="round" stroke-linejoin="round"/>
</svg>
