<svg width="62" height="80" viewBox="0 0 62 80" fill="none" xmlns="http://www.w3.org/2000/svg">
<path d="M54.897 36.5641C53.9136 35.2807 52.7303 34.1807 51.6136 33.0807C48.7636 30.5307 45.5303 28.6974 42.797 26.0141C36.447 19.7974 35.047 9.5474 39.097 1.66406C35.047 2.6474 31.5136 4.8474 28.497 7.28073C17.4636 16.1307 13.1303 31.7641 18.3303 45.1641C18.497 45.5974 18.6636 46.0141 18.6636 46.5641C18.6636 47.4974 18.0303 48.3474 17.1803 48.6974C16.197 49.1307 15.1803 48.8641 14.3636 48.1807C14.1136 47.9807 13.9136 47.7307 13.7636 47.4641C8.94696 41.3807 8.1803 32.6474 11.4303 25.6641C4.31363 31.4474 0.446966 41.2474 0.996966 50.4807C1.24697 52.6141 1.51363 54.7307 2.2303 56.8641C2.8303 59.4141 3.9803 61.9641 5.24696 64.2307C9.84696 71.5974 17.797 76.8807 26.3636 77.9307C35.4803 79.0807 45.2136 77.4141 52.197 71.1141C59.9803 64.0474 62.7136 52.7307 58.7136 43.0141L58.1636 41.9141C57.2636 39.9641 54.8803 36.5474 54.8803 36.5474L54.897 36.5641ZM41.447 63.3807C40.247 64.3974 38.297 65.5141 36.7636 65.9307C31.997 67.6307 27.2303 65.2474 24.4136 62.4474C29.4803 61.2641 32.497 57.5141 33.397 53.7141C34.1136 50.3141 32.7636 47.4974 32.197 44.2141C31.6803 41.0641 31.7636 38.3807 32.9136 35.4474C33.7303 37.0641 34.5803 38.6807 35.597 39.9641C38.8803 44.2141 44.0303 46.0974 45.1303 51.8807C45.297 52.4807 45.3803 53.0807 45.3803 53.7141C45.5136 57.1974 43.9803 61.0307 41.4136 63.3807H41.447Z" fill="#5112AD" stroke="#5112AD" stroke-width="1.66667" stroke-linecap="round" stroke-linejoin="round"/>
</svg>
