<svg width="7" height="11" viewBox="0 0 7 11" fill="none" xmlns="http://www.w3.org/2000/svg">
<path fill-rule="evenodd" clip-rule="evenodd" d="M4.17308 8.80623C5.36851 6.89392 6.47607 5.06883 6.47607 3.47612C6.47607 1.81304 5.02635 0.464844 3.23804 0.464844C1.44972 0.464844 0 1.81304 0 3.47612C0 4.72369 0.749401 6.05356 1.58568 7.53762C1.81704 7.94818 2.05504 8.37054 2.28567 8.80623C2.34123 8.91119 2.40101 9.02502 2.46254 9.14218C2.78566 9.75745 3.15716 10.4648 3.22072 10.4648C3.26036 10.4648 3.40417 10.1947 3.5927 9.84054C3.76409 9.51858 3.97244 9.12719 4.17308 8.80623ZM3.25033 5.69222C4.36803 5.69222 5.27411 4.79486 5.27411 3.6879C5.27411 2.58095 4.36803 1.68359 3.25033 1.68359C2.13264 1.68359 1.22656 2.58095 1.22656 3.6879C1.22656 4.79486 2.13264 5.69222 3.25033 5.69222Z" fill="#5F00FB"/>
</svg>
