<svg width="31" height="31" viewBox="0 0 31 31" fill="none" xmlns="http://www.w3.org/2000/svg">
<rect x="0.953125" y="0.734375" width="29.9986" height="29.9986" rx="14.9993" fill="white" fill-opacity="0.2"/>
<path d="M18.3524 5.72923C18.2435 5.42785 17.9542 5.22656 17.6308 5.22656H15.3276C15.1699 5.2262 15.0161 5.2745 14.8869 5.36486C14.7578 5.45522 14.6597 5.58324 14.606 5.73144L14.0238 7.35547C13.9328 7.60927 13.7317 7.80622 13.4814 7.9065C13.2826 7.98615 13.1136 8.06263 12.9737 8.137C12.9024 8.17472 12.8283 8.21589 12.7512 8.26079C12.4921 8.41179 12.1782 8.44668 11.901 8.33217L10.2568 7.65303C10.1193 7.59614 9.96832 7.58021 9.82196 7.60714C9.67561 7.63407 9.54015 7.70271 9.43189 7.80482L7.88758 9.26333C7.7717 9.3721 7.6933 9.51482 7.66365 9.67095C7.63401 9.82709 7.65464 9.98861 7.72259 10.1323L8.43182 11.6309C8.54939 11.8793 8.54468 12.1669 8.43395 12.4184C8.3774 12.5469 8.32359 12.6765 8.27256 12.8073C8.22932 12.9241 8.18267 13.0663 8.13216 13.2348C8.0572 13.4848 7.88439 13.695 7.6491 13.808L5.95389 14.6222C5.82929 14.6815 5.72325 14.7737 5.64726 14.8888C5.57126 15.004 5.52819 15.1377 5.52271 15.2756L5.44572 17.3886C5.44026 17.5557 5.49014 17.7199 5.5876 17.8557C5.68506 17.9916 5.82465 18.0915 5.98469 18.1398L7.51029 18.6043C7.78846 18.689 8.00695 18.9035 8.10762 19.1763C8.16392 19.3289 8.22258 19.4806 8.28356 19.6313C8.32839 19.737 8.37495 19.842 8.42322 19.9461C8.53953 20.1971 8.54834 20.4865 8.43296 20.7379L7.71709 22.2976C7.65161 22.4409 7.63284 22.6012 7.66343 22.7557C7.69403 22.9103 7.77244 23.0513 7.88758 23.1588L9.43409 24.6097C9.54343 24.7119 9.68015 24.7802 9.82759 24.8062C9.97503 24.8321 10.1268 24.8147 10.2645 24.7559L11.9644 24.0295C12.2114 23.9239 12.4917 23.9362 12.7349 24.0502C12.834 24.0966 12.9338 24.1416 13.0342 24.1851C13.1848 24.2463 13.3362 24.3052 13.4886 24.3617C13.7402 24.4552 13.9427 24.6494 14.0376 24.9005L14.7303 26.7336C14.7871 26.8816 14.8883 27.0083 15.0201 27.0964C15.1519 27.1844 15.3077 27.2295 15.4662 27.2253L17.556 27.178C17.7104 27.175 17.8602 27.1253 17.9858 27.0356C18.1114 26.9459 18.207 26.8203 18.26 26.6753L18.8336 25.0868C18.9233 24.8385 19.1174 24.6421 19.3646 24.5496L19.7801 24.3941C19.9366 24.3345 20.0911 24.27 20.2434 24.2007C20.5148 24.0772 20.8288 24.074 21.0923 24.2136L22.5146 24.9671C22.6539 25.0409 22.8124 25.0703 22.9689 25.0514C23.1254 25.0325 23.2723 24.9663 23.3901 24.8615L25.1786 23.2644C25.2985 23.1578 25.3811 23.0156 25.4144 22.8587C25.4477 22.7017 25.4298 22.5382 25.3634 22.3922L24.5885 20.6792C24.4831 20.4464 24.4839 20.1805 24.5771 19.9424C24.6392 19.7839 24.6971 19.6236 24.7507 19.4619C24.7683 19.4067 24.7856 19.3484 24.8026 19.2871C24.8865 18.9845 25.1007 18.7312 25.3965 18.626L26.7922 18.1299C26.9324 18.0807 27.0551 17.9914 27.1451 17.8731C27.235 17.7548 27.2883 17.6127 27.2982 17.4645L27.4434 15.1821C27.4632 14.8642 27.2795 14.5672 26.9825 14.4407L25.3564 13.744C25.1324 13.648 24.9579 13.4648 24.8671 13.2386C24.79 13.0465 24.7219 12.8866 24.6627 12.7578C24.6232 12.6727 24.5781 12.5798 24.5271 12.4791C24.4028 12.2335 24.387 11.9458 24.495 11.6926L25.172 10.1059C25.2908 9.8265 25.2314 9.50642 25.0202 9.28753L23.4297 7.64313C23.3133 7.52336 23.1612 7.44457 22.9961 7.41859C22.8311 7.39261 22.6622 7.42084 22.5146 7.49903L21.1016 8.24677C20.8526 8.37855 20.557 8.38402 20.2982 8.27261C20.1264 8.19861 19.9766 8.13895 19.8483 8.093C19.7686 8.06442 19.6833 8.03636 19.5922 8.0086C19.3051 7.92113 19.0678 7.71235 18.966 7.42998L18.3524 5.72923Z" stroke="black" stroke-width="1.61993"/>
<ellipse cx="16.2483" cy="16.0295" rx="3.59984" ry="3.59984" stroke="black" stroke-width="1.61993"/>
</svg>
